<?xml version="1.0" encoding="utf-8"?>
<!-- Generator: Adobe Illustrator 26.0.0, SVG Export Plug-In . SVG Version: 6.00 Build 0)  -->
<svg version="1.1" id="Ebene_1" xmlns="http://www.w3.org/2000/svg" xmlns:xlink="http://www.w3.org/1999/xlink" x="0px" y="0px"
	 viewBox="0 0 36 27" style="enable-background:new 0 0 36 27;" xml:space="preserve">
<style type="text/css">
	.st0{fill-rule:evenodd;clip-rule:evenodd;fill:#FF0000;}
	.st1{fill:#FFFFFF;}
</style>
<path class="st0" d="M36,0.5H8.7c-2.3,0-4.2,1.6-4.6,3.9L0,27h27.3c2.3,0,4.2-1.6,4.6-3.9L36,0.5z"/>
<g id="x2">
	<path class="st1" d="M15.9,21.9H13c-0.1,0-0.3-0.1-0.3-0.2l-1.5-3.3h0l-2.7,3.3c-0.1,0.1-0.3,0.2-0.4,0.2H4.9
		c-0.2,0-0.2-0.1-0.1-0.2l5-6l-2.6-5.4c-0.1-0.2,0-0.2,0.2-0.2h2.9c0.2,0,0.3,0.1,0.3,0.2l1.3,2.9h0l2.3-2.9
		c0.1-0.1,0.3-0.2,0.4-0.2h3.1c0.1,0,0.1,0,0.2,0.1c0,0.1,0,0.1,0,0.2l-4.6,5.5l2.8,5.9C16.1,21.8,16.1,21.9,15.9,21.9z"/>
	<path class="st1" d="M18.1,21.6l0.4-2.2c0-0.2,0.1-0.3,0.2-0.4l6.9-7.1c1-1,1.5-2,1.5-2.9c0-0.5-0.1-0.8-0.4-1.1
		c-0.3-0.3-0.6-0.4-1.1-0.4c-0.6,0-1,0.2-1.4,0.5c-0.4,0.4-0.7,0.9-0.9,1.5c0,0.1-0.1,0.2-0.3,0.2l-2.5-0.4c-0.1,0-0.2-0.1-0.1-0.3
		c0.3-1.2,1-2.3,1.9-3.1c1-0.8,2.2-1.2,3.8-1.2c1.3,0,2.4,0.4,3.2,1.1c0.8,0.7,1.2,1.6,1.2,2.8c0,1.7-0.8,3.3-2.4,5L22.8,19v0h5.6
		c0.2,0,0.3,0.1,0.2,0.2l-0.4,2.3c0,0.2-0.1,0.2-0.3,0.2h-9.6C18.2,21.9,18.1,21.8,18.1,21.6z"/>
</g>
</svg>
